<svg t="1767257251063" class="icon" viewBox="0 0 1024 1024" version="1.1" xmlns="http://www.w3.org/2000/svg" p-id="20315" width="200" height="200"><path d="M571.861333 120.96l355.285334 180.565333a20.565333 20.565333 0 0 1 0 36.949334L571.861333 519.04a132.501333 132.501333 0 0 1-119.722666 0L96.853333 338.474667a20.565333 20.565333 0 0 1 0-36.949334L452.138667 120.96a132.501333 132.501333 0 0 1 119.722666 0z m-29.013333 57.045333a68.565333 68.565333 0 0 0-57.514667-1.941333l-4.202666 1.941333-271.893334 138.197334a4.266667 4.266667 0 0 0 0 7.594666l271.893334 138.197334a68.565333 68.565333 0 0 0 57.536 1.941333l4.202666-1.941333 271.872-138.197334a4.266667 4.266667 0 0 0 0-7.594666L542.869333 178.005333zM131.285333 476.032l342.4 175.850667a86.4 86.4 0 0 0 73.173334 2.517333l5.333333-2.517333 341.44-175.402667 33.536 17.045333a20.565333 20.565333 0 0 1 0 36.949334L571.861333 711.04a132.501333 132.501333 0 0 1-119.722666 0L96.853333 530.474667a20.565333 20.565333 0 0 1 0-36.949334l34.410667-17.493333z m0 192l342.4 175.850667a86.4 86.4 0 0 0 73.173334 2.517333l5.333333-2.517333 341.44-175.402667 33.536 17.045333a20.565333 20.565333 0 0 1 0 36.949334L571.861333 903.04a132.501333 132.501333 0 0 1-119.722666 0L96.853333 722.474667a20.565333 20.565333 0 0 1 0-36.949334l34.410667-17.493333z" p-id="20316"></path></svg>
