<svg t="1767256450935" class="icon" viewBox="0 0 1236 1024" version="1.1" xmlns="http://www.w3.org/2000/svg" p-id="7330" width="200" height="200"><path d="M1199.122188 496.294787l35.963391 22.091797-12.330306 21.578035-8.220203 13.871593a185.468342 185.468342 0 0 1-179.303189 96.587391c-108.917697 244.551055-331.376954 372.991735-621.139129 372.991735A411.010176 411.010176 0 0 1 46.238645 834.86442l-3.596339-6.165153v-3.596339l-9.761492-17.467932a367.854107 367.854107 0 0 1-30.825763-187.523393l6.678915-39.55973h806.60747a240.954716 240.954716 0 0 0 69.87173-9.247728l15.412882-7.192679a202.422512 202.422512 0 0 1-16.440407-62.165289 187.00963 187.00963 0 0 1 36.477153-130.495731l27.743187-37.504678 20.036746 15.926644 14.899119 11.816543a217.835393 217.835393 0 0 1 80.660747 110.972747 205.505088 205.505088 0 0 1 135.119595 23.633085z m-241.468478-88.367187a143.339799 143.339799 0 0 0-21.578034 88.88095 134.09207 134.09207 0 0 0 22.605559 63.706577l17.467933 24.146848-26.715662 13.871594-19.522983 9.247729h-5.65139l-18.495458 8.733966a283.597021 283.597021 0 0 1-89.908476 13.357831H52.403797a314.422785 314.422785 0 0 0 24.660611 154.128816l15.412882 27.229424a359.633904 359.633904 0 0 0 320.587937 160.293968c275.890581 0 482.423194-122.275527 580.551873-359.633904l6.678916-16.440407h17.981695a146.936138 146.936138 0 0 0 145.908612-62.165289 168.514172 168.514172 0 0 0-116.624137-7.706441l-38.532204 4.110102 8.733966-31.339526a156.69763 156.69763 0 0 0-61.651526-90.422238z" fill="#606266" p-id="7331"></path><path d="M248.661156 796.332216a25.688136 25.688136 0 1 0-25.688136-25.688136 25.688136 25.688136 0 0 0 25.688136 25.688136z m0 51.376272a77.064408 77.064408 0 1 1 77.064408-77.064408 77.064408 77.064408 0 0 1-77.064408 77.064408z" fill="#606266" p-id="7332"></path><path d="M43.156068 462.386448a51.376272 51.376272 0 0 1 51.376272-51.376272h51.376272a51.376272 51.376272 0 0 1 51.376272 51.376272v51.376272a51.376272 51.376272 0 0 1-51.376272 51.376272h-51.376272a51.376272 51.376272 0 0 1-51.376272-51.376272z m51.376272 0v51.376272h51.376272V462.386448zM248.661156 256.88136a51.376272 51.376272 0 0 1 51.376272-51.376272h51.376272a51.376272 51.376272 0 0 1 51.376272 51.376272v51.376272a51.376272 51.376272 0 0 1-51.376272 51.376272h-51.376272a51.376272 51.376272 0 0 1-51.376272-51.376272z m51.376272 0v51.376272h51.376272V256.88136zM454.166244 256.88136a51.376272 51.376272 0 0 1 51.376272-51.376272h51.376272a51.376272 51.376272 0 0 1 51.376272 51.376272v51.376272a51.376272 51.376272 0 0 1-51.376272 51.376272h-51.376272a51.376272 51.376272 0 0 1-51.376272-51.376272z m51.376272 0v51.376272h51.376272V256.88136zM454.166244 51.376272a51.376272 51.376272 0 0 1 51.376272-51.376272h51.376272a51.376272 51.376272 0 0 1 51.376272 51.376272v51.376272a51.376272 51.376272 0 0 1-51.376272 51.376272h-51.376272a51.376272 51.376272 0 0 1-51.376272-51.376272z m51.376272 0v51.376272h51.376272V51.376272zM454.166244 462.386448a51.376272 51.376272 0 0 1 51.376272-51.376272h51.376272a51.376272 51.376272 0 0 1 51.376272 51.376272v51.376272a51.376272 51.376272 0 0 1-51.376272 51.376272h-51.376272a51.376272 51.376272 0 0 1-51.376272-51.376272z m51.376272 0v51.376272h51.376272V462.386448zM659.671332 462.386448a51.376272 51.376272 0 0 1 51.376272-51.376272h51.376272a51.376272 51.376272 0 0 1 51.376272 51.376272v51.376272a51.376272 51.376272 0 0 1-51.376272 51.376272h-51.376272a51.376272 51.376272 0 0 1-51.376272-51.376272z m51.376272 0v51.376272h51.376272V462.386448zM248.661156 462.386448a51.376272 51.376272 0 0 1 51.376272-51.376272h51.376272a51.376272 51.376272 0 0 1 51.376272 51.376272v51.376272a51.376272 51.376272 0 0 1-51.376272 51.376272h-51.376272a51.376272 51.376272 0 0 1-51.376272-51.376272z m51.376272 0v51.376272h51.376272V462.386448z" fill="#606266" p-id="7333"></path></svg>
