<svg t="1767257379654" class="icon" viewBox="0 0 1024 1024" version="1.1" xmlns="http://www.w3.org/2000/svg" p-id="26802" width="200" height="200"><path d="M800 540c0-57.2-17.2-113.2-49.2-160.8l42.4-38.4 4.4-2.8c7.6-6.8 8.4-18.8 1.2-26.4-6.4-7.2-17.2-8.4-24.8-2.8l-0.8-0.8-50.4 36.4a287.928 287.928 0 0 0-187.6-91.6L532 192c0-10.4-8.4-18.8-18.8-18.8s-18.8 8.4-18.8 18.8l-3.2 60.4c-72.4 5.2-140 37.6-189.2 90.8L253.2 308l-0.8 0.8c-8.4-6-20-4-26.4 4.4-5.6 7.6-4.4 18.4 2.8 24.8l4.4 2.8 40.8 36.8c-41.2 60.4-58 134-46.8 206l-55.2 16h-2.8c-10 2.4-16.4 12.4-14 22.8s12.4 16.4 22.4 14l59.6-10.4c22 68.8 68.8 127.2 131.2 163.2l-24 56.8h0.4c-4.4 9.6-0.4 20.4 9.2 24.8 9.6 4.4 20.4 0.4 24.8-9.2 0.4-0.8 0.8-2 1.2-3.2l28-50.4c67.2 26 142 25.6 209.2-0.8l28.4 51.2c2.8 10 12.8 16 23.2 13.2 10-2.8 16-12.8 13.2-23.2-0.4-1.2-0.8-2-1.2-3.2h0.4l-24.4-58c61.6-36 107.6-94 129.2-162L848 636c10 2.4 20.4-4 22.8-14 2.4-10-4-20.4-14-22.4h-2.8l-58-16.8c2-14 3.6-28.4 4-42.8z m-129.2-157.6l-106.4 77.2c-5.6-3.6-12-6.8-18.4-9.2l-7.2-132.4c50 6 96.4 28.8 132 64.4zM512 476c35.2 0 64 28.8 64 64s-28.8 64-64 64-64-28.8-64-64 28.8-64 64-64z m-24-158.8l-7.2 132c-6.8 2.4-13.6 5.6-19.6 9.6L354.4 381.2c36-36 83.2-58.4 133.6-64zM288 540c0-42 12-83.2 34.4-118.8l98.4 88.8c-2 6.4-3.6 12.8-4.4 19.2l-127.2 36.8c-0.8-8.8-1.2-17.2-1.2-26z m105.6 190c-42.8-26.8-75.2-67.2-92.4-114.4l130.8-22.8c3.6 6 8.4 11.6 13.2 16.4l-51.6 120.8zM512 764c-24.4 0-48.8-4-72-12l64.8-116.4h17.2l64.4 115.6c-24 8.4-49.2 12.8-74.4 12.8z m120.4-35.2l-51.6-122c4.4-4.4 8.4-9.6 11.6-14.8l130.4 22.8c-16.8 46.8-48.4 87.2-90.4 114z m102-164l-127.2-36.8c-0.8-5.6-2-11.2-3.6-16.4l98.8-89.2c22 35.2 33.6 76 33.6 117.6 0 8.4-0.8 16.4-1.6 24.8z" p-id="26803"></path><path d="M1000 623.2l-87.2-382.4c-3.2-14.4-12.8-26-26-32.4L534 38.4c-13.2-6.4-28.4-6.4-41.6 0L139.2 208.8c-13.2 6.4-22.8 18-26 32.4L26.4 622.8c-3.2 14.4 0 29.2 9.2 40.8l244 306.4c9.2 11.6 22.8 18 37.6 18h392c14.4 0 28-6.4 37.2-17.6l244.4-306.4c9.2-11.6 12.4-26.4 9.2-40.8zM701.6 924H325.2l-234.8-294.4 83.6-366.8 339.2-163.2 339.2 163.2 83.6 366.8-234.4 294.4z" p-id="26804"></path></svg>
